<svg width="38" height="37" viewBox="0 0 38 37" fill="none" xmlns="http://www.w3.org/2000/svg">
<path d="M20.6966 20.0417H17.6132V10.7917H20.6966M20.6966 26.2083H17.6132V23.125H20.6966M19.1549 3.08333C17.1303 3.08333 15.1256 3.48209 13.2552 4.25685C11.3847 5.03161 9.68523 6.1672 8.25366 7.59877C5.36247 10.49 3.73822 14.4112 3.73822 18.5C3.73822 22.5888 5.36247 26.51 8.25366 29.4012C9.68523 30.8328 11.3847 31.9684 13.2552 32.7431C15.1256 33.5179 17.1303 33.9167 19.1549 33.9167C23.2436 33.9167 27.1649 32.2924 30.0561 29.4012C32.9473 26.51 34.5716 22.5888 34.5716 18.5C34.5716 16.4755 34.1728 14.4707 33.398 12.6003C32.6233 10.7299 31.4877 9.03034 30.0561 7.59877C28.6245 6.1672 26.925 5.03161 25.0546 4.25685C23.1842 3.48209 21.1794 3.08333 19.1549 3.08333Z" fill="#F8F8F8"/>
</svg>
