<svg width="38" height="37" viewBox="0 0 38 37" fill="none" xmlns="http://www.w3.org/2000/svg">
<path d="M19.1549 2.46667C16.6882 2.46667 16.6882 4.93333 14.2216 4.93333H5.58825C4.24392 4.93333 3.12158 6.05567 3.12158 7.4V24.6667C3.12158 26.011 4.24392 27.1333 5.58825 27.1333H17.9216V33.3C17.9216 33.3 17.9216 34.5333 19.1549 34.5333C20.3882 34.5333 20.3882 33.3 20.3882 33.3V27.1333H32.7216C34.0659 27.1333 35.1882 26.011 35.1882 24.6667V7.4C35.1882 6.05567 34.0659 4.93333 32.7216 4.93333H24.0882C21.6216 4.93333 21.6216 2.46667 19.1549 2.46667ZM8.05491 12.3333V9.86667H30.2549V12.3333H8.05491ZM8.05491 14.8H17.9216V17.2667H8.05491V14.8ZM8.05491 19.7333H25.3216V22.2H8.05491V19.7333Z" fill="white"/>
</svg>
