<svg width="37" height="37" viewBox="0 0 37 37" fill="none" xmlns="http://www.w3.org/2000/svg">
<path d="M9.25002 32.375C8.40211 32.375 7.67598 32.0728 7.07165 31.4685C6.46731 30.8641 6.16566 30.1385 6.16669 29.2916V15.4166C6.16669 14.9285 6.27615 14.466 6.49506 14.0291C6.71398 13.5923 7.01563 13.2326 7.40002 12.95L16.65 6.01248C16.9327 5.80692 17.2281 5.65276 17.5365 5.54998C17.8448 5.4472 18.166 5.39581 18.5 5.39581C18.8341 5.39581 19.1552 5.4472 19.4636 5.54998C19.7719 5.65276 20.0674 5.80692 20.35 6.01248L29.6 12.95C29.9854 13.2326 30.2876 13.5923 30.5065 14.0291C30.7254 14.466 30.8344 14.9285 30.8334 15.4166V29.2916C30.8334 30.1396 30.5312 30.8657 29.9269 31.47C29.3225 32.0744 28.5969 32.376 27.75 32.375H21.5834V21.5833H15.4167V32.375H9.25002Z" fill="white"/>
</svg>
