<svg width="37" height="37" viewBox="0 0 37 37" fill="none" xmlns="http://www.w3.org/2000/svg">
<path d="M30.6484 28.4746C31.3267 27.3954 31.7275 26.1467 31.7275 24.79C31.7275 20.9513 28.6288 17.8525 24.79 17.8525C20.9513 17.8525 17.8525 20.9513 17.8525 24.79C17.8525 28.6288 20.9513 31.7275 24.7746 31.7275C26.1313 31.7275 27.3954 31.3267 28.4592 30.6483L33.2692 35.4583L35.4584 33.2692L30.6484 28.4746ZM24.79 28.6442C23.7678 28.6442 22.7875 28.2381 22.0647 27.5153C21.3419 26.7925 20.9359 25.8122 20.9359 24.79C20.9359 23.7678 21.3419 22.7875 22.0647 22.0647C22.7875 21.3419 23.7678 20.9358 24.79 20.9358C25.8122 20.9358 26.7925 21.3419 27.5153 22.0647C28.2381 22.7875 28.6442 23.7678 28.6442 24.79C28.6442 25.8122 28.2381 26.7925 27.5153 27.5153C26.7925 28.2381 25.8122 28.6442 24.79 28.6442ZM24.235 15.54C23.0942 15.5708 21.9996 15.8175 20.9975 16.2338L20.1496 14.9542L14.2913 24.4817L9.65085 19.055L4.0546 28.0121L1.54169 26.2083L9.25002 13.875L13.875 19.2708L20.0417 9.25001L24.235 15.54ZM28.2279 16.3108C27.2413 15.8792 26.1775 15.6171 25.0675 15.5554L32.9609 3.08334L35.4584 4.90251L28.2279 16.3108Z" fill="white"/>
</svg>
