<svg width="38" height="37" viewBox="0 0 38 37" fill="none" xmlns="http://www.w3.org/2000/svg">
<path d="M19.3803 18.5H30.172M30.172 18.5L25.547 23.125M30.172 18.5L25.547 13.875M30.172 9.25V7.70833C30.172 6.89058 29.8471 6.10632 29.2689 5.52809C28.6906 4.94985 27.9064 4.625 27.0886 4.625H11.672C10.8542 4.625 10.0699 4.94985 9.49171 5.52809C8.91347 6.10632 8.58862 6.89058 8.58862 7.70833V29.2917C8.58862 30.1094 8.91347 30.8937 9.49171 31.4719C10.0699 32.0501 10.8542 32.375 11.672 32.375H27.0886C27.9064 32.375 28.6906 32.0501 29.2689 31.4719C29.8471 30.8937 30.172 30.1094 30.172 29.2917V27.75" stroke="white" stroke-width="1.5" stroke-linecap="round" stroke-linejoin="round"/>
</svg>
