<svg width="37" height="37" viewBox="0 0 37 37" fill="none" xmlns="http://www.w3.org/2000/svg">
<path d="M35.4583 6.32084V3.54584L32.6833 3.23751C32.5291 3.23751 31.6041 3.08334 30.0625 3.08334C23.7416 3.08334 19.1166 4.93334 16.4958 8.17084C14.4916 6.93751 11.7166 6.16668 8.47914 6.16668C6.93747 6.16668 5.8583 6.32084 5.8583 6.32084L2.92914 6.78334L3.0833 9.40418C3.23747 14.0292 5.54997 22.8167 13.5666 22.8167H13.875V28.0583C8.01664 28.8292 3.0833 30.8333 3.0833 30.8333V33.9167H33.9166V30.8333C33.9166 30.8333 28.9833 28.8292 23.125 28.0583V23.125C32.8375 22.9708 35.4583 12.025 35.4583 6.32084ZM18.5 27.75H16.9583V19.1167C16.9583 19.1167 16.65 13.875 12.3333 13.875C12.3333 13.875 14.6458 15.1083 15.2625 19.5792C14.6458 19.7333 14.0291 19.7333 13.5666 19.7333C6.47497 19.7333 6.16664 9.40418 6.16664 9.40418C6.16664 9.40418 7.09164 9.25001 8.47914 9.25001C11.4083 9.25001 16.1875 9.86668 17.575 14.0292C18.3458 7.09168 26.2083 6.16668 30.0625 6.16668C31.45 6.16668 32.375 6.32084 32.375 6.32084C32.375 6.32084 32.375 20.1958 22.6625 20.1958H21.5833C21.5833 17.1125 24.6666 12.4875 24.6666 12.4875C20.0416 14.0292 20.0416 20.0417 20.0416 20.0417V27.75H18.5Z" fill="white"/>
</svg>
