<svg width="37" height="37" viewBox="0 0 37 37" fill="none" xmlns="http://www.w3.org/2000/svg">
<path d="M32.3719 4.625V7.70833C32.3719 10.5705 31.235 13.3154 29.2111 15.3392C27.1873 17.363 24.4424 18.5 21.5803 18.5H20.0386V20.0417H27.7469V30.8333C27.7469 31.6511 27.4221 32.4353 26.8438 33.0136C26.2656 33.5918 25.4813 33.9167 24.6636 33.9167H12.3303C11.5125 33.9167 10.7283 33.5918 10.15 33.0136C9.57178 32.4353 9.24693 31.6511 9.24693 30.8333V20.0417H16.9553V15.4167C16.9553 12.5545 18.0922 9.80963 20.1161 7.7858C22.1399 5.76197 24.8848 4.625 27.7469 4.625H32.3719ZM8.47609 3.08333C10.3261 3.08183 12.1493 3.52484 13.7923 4.37505C15.4353 5.22527 16.85 6.4578 17.9173 7.96887C16.2892 10.1101 15.4096 12.7268 15.4136 15.4167V16.9583H14.6428C11.5762 16.9583 8.63523 15.7401 6.46684 13.5718C4.29845 11.4034 3.08026 8.4624 3.08026 5.39583V3.08333H8.47609Z" fill="white"/>
</svg>
